<?xml version="1.0" standalone="no"?>
<!DOCTYPE svg PUBLIC "-//W3C//DTD SVG 20010904//EN"
 "http://www.w3.org/TR/2001/REC-SVG-20010904/DTD/svg10.dtd">
<svg version="1.0" xmlns="http://www.w3.org/2000/svg"
 width="512.000000pt" height="512.000000pt" viewBox="0 0 512.000000 512.000000"
 preserveAspectRatio="xMidYMid meet">

<g transform="translate(0.000000,512.000000) scale(0.100000,-0.100000)"
fill="#ffffff" stroke="none">
<path d="M2260 4815 l0 -305 -375 0 -375 0 0 -300 0 -300 375 0 375 0 0 -750
0 -750 300 0 300 0 0 750 0 750 375 0 375 0 0 300 0 300 -375 0 -375 0 0 305
0 305 -300 0 -300 0 0 -305z"/>
<path d="M225 4197 c-90 -30 -153 -84 -197 -167 l-23 -45 -3 -825 c-3 -923 -2
-949 65 -1154 19 -60 62 -162 94 -225 121 -237 267 -402 572 -650 l177 -143 0
-494 0 -494 750 0 751 0 -3 723 -3 722 -27 96 c-35 128 -78 226 -146 329 -78
119 -809 854 -892 896 -79 41 -181 41 -262 1 -107 -53 -163 -144 -163 -267 1
-122 16 -143 326 -455 148 -149 269 -275 269 -281 0 -5 -45 -54 -100 -109
l-100 -100 -301 300 c-297 297 -351 361 -380 450 -10 31 -14 222 -19 860 -5
812 -5 820 -26 866 -28 60 -94 126 -152 151 -57 26 -154 32 -207 15z"/>
<path d="M4735 4197 c-90 -30 -153 -84 -197 -167 l-23 -45 -5 -820 c-5 -638
-9 -829 -19 -860 -29 -89 -83 -153 -380 -450 l-301 -300 -100 100 c-55 55
-100 104 -100 109 0 6 121 132 269 281 310 312 325 333 326 455 0 85 -21 142
-74 203 -82 92 -239 121 -351 63 -83 -42 -814 -777 -892 -896 -68 -103 -111
-201 -146 -329 l-27 -96 -3 -722 -3 -723 751 0 750 0 0 494 0 494 177 143
c305 248 451 413 572 650 32 63 75 165 94 225 67 205 68 231 65 1154 -3 820
-3 825 -24 871 -28 60 -94 126 -152 151 -57 26 -154 32 -207 15z"/>
</g>
</svg>
