<svg xmlns="http://www.w3.org/2000/svg" xmlns:xlink="http://www.w3.org/1999/xlink" viewBox="0,0,256,256" width="500px" height="500px"><g fill="#fefefe" fill-rule="nonzero" stroke="none" stroke-width="1" stroke-linecap="butt" stroke-linejoin="miter" stroke-miterlimit="10" stroke-dasharray="" stroke-dashoffset="0" font-family="none" font-weight="none" font-size="none" text-anchor="none" style="mix-blend-mode: normal"><g transform="scale(5.12,5.12)"><path d="M36,2c-0.42969,0 -0.86328,0.01563 -1.28125,0.0625c-0.11328,0.01172 -0.23047,0.04688 -0.34375,0.0625c-0.30469,0.03906 -0.60937,0.09375 -0.90625,0.15625c-0.11328,0.02344 -0.19922,0.03516 -0.3125,0.0625c-0.29297,0.07031 -0.58984,0.15625 -0.875,0.25c-0.09375,0.03125 -0.1875,0.05859 -0.28125,0.09375c-0.30078,0.10938 -0.61719,0.24219 -0.90625,0.375c-0.07031,0.03125 -0.11719,0.0625 -0.1875,0.09375c-0.30859,0.14844 -0.61328,0.29688 -0.90625,0.46875c-0.04687,0.02734 -0.10937,0.06641 -0.15625,0.09375c-0.3125,0.1875 -0.61328,0.37891 -0.90625,0.59375c-0.02344,0.01953 -0.03906,0.04297 -0.0625,0.0625c-0.3125,0.23438 -0.61719,0.48828 -0.90625,0.75c-0.00781,0.00781 -0.02344,-0.00781 -0.03125,0c-0.30078,0.27344 -0.57422,0.57422 -0.84375,0.875c-1.90625,2.125 -3.09375,4.92578 -3.09375,8c0,4.14844 2.13672,6.99219 4.40625,10c0.82422,1.09375 1.70313,2.24609 2.53125,3.53125c1.78516,2.24219 3.43359,4.87891 4.34375,8.375c0.14063,0.54297 0.13672,0.96875 0.375,1.15625c0.10938,0.02344 0.21484,0.03125 0.34375,0.03125c0.12891,0 0.23438,-0.01172 0.34375,-0.03125c0.23828,-0.1875 0.23438,-0.61328 0.375,-1.15625c0.91016,-3.49609 2.55859,-6.13281 4.34375,-8.375c0.82813,-1.28516 1.70703,-2.44141 2.53125,-3.53125c0.14063,-0.18359 0.26953,-0.37891 0.40625,-0.5625c0.21484,-0.28516 0.41797,-0.55859 0.625,-0.84375c0.09766,-0.13281 0.18359,-0.27344 0.28125,-0.40625c0.15625,-0.22266 0.31641,-0.43359 0.46875,-0.65625c0.10938,-0.16406 0.20703,-0.33594 0.3125,-0.5c0.13281,-0.20312 0.28516,-0.38672 0.40625,-0.59375c0.10938,-0.18359 0.21094,-0.375 0.3125,-0.5625c0.10938,-0.19531 0.21484,-0.39453 0.3125,-0.59375c0.10156,-0.20312 0.19141,-0.41797 0.28125,-0.625c0.08594,-0.19141 0.17578,-0.39844 0.25,-0.59375c0.08984,-0.23047 0.14453,-0.44922 0.21875,-0.6875c0.05859,-0.1875 0.13672,-0.37109 0.1875,-0.5625c0.07031,-0.28125 0.10547,-0.58203 0.15625,-0.875c0.02734,-0.16406 0.07422,-0.30078 0.09375,-0.46875c0.05859,-0.46875 0.09375,-0.96484 0.09375,-1.46875c0,-6.61719 -5.38281,-12 -12,-12zM6.34375,6c-2.39062,0 -4.34375,1.95313 -4.34375,4.34375v33.3125c0,0.22656 0.02734,0.4375 0.0625,0.65625c0.32031,2.07422 2.11719,3.6875 4.28125,3.6875h33.3125c0.22656,0 0.4375,-0.02734 0.65625,-0.0625c1.96484,-0.30469 3.5,-1.92578 3.65625,-3.9375h0.03125v-17.21875c-0.41797,0.57422 -0.83984,1.17578 -1.25,1.8125l-0.125,0.1875c-2.02734,2.54688 -3.25781,4.89453 -3.96875,7.625c-0.03125,0.11719 -0.04297,0.21094 -0.0625,0.3125c-0.07812,0.40625 -0.22266,1.05469 -0.6875,1.59375l4.09375,4.09375v1.25c0,1.28516 -1.05859,2.34375 -2.34375,2.34375h-1.25l-14.0625,-14.03125l3.59375,-3.65625l3.5625,3.59375c-0.58594,-1.03516 -1.28125,-2.06641 -2.125,-3.125l-0.125,-0.1875c-0.58203,-0.90234 -1.17187,-1.69141 -1.75,-2.46875l-19.90625,19.875h-1.25c-1.28516,0 -2.34375,-1.05859 -2.34375,-2.34375v-1.25l20.46875,-20.5c-1.41016,-2.23437 -2.46875,-4.72266 -2.46875,-7.90625c0,-2.97266 0.94141,-5.73047 2.53125,-8zM12.125,10c1.58594,0 3.00781,0.60547 4.09375,1.59375l-1.71875,1.71875c-0.64453,-0.55078 -1.46094,-0.875 -2.375,-0.875c-2.03516,0 -3.6875,1.65234 -3.6875,3.6875c0,2.03516 1.65234,3.6875 3.6875,3.6875c1.71094,0 2.87891,-1.02344 3.3125,-2.4375h-3.3125v-2.34375h5.75c0.50391,2.38281 -0.40625,7.1875 -5.75,7.1875c-3.375,0 -6.125,-2.71875 -6.125,-6.09375c0,-3.375 2.75,-6.125 6.125,-6.125zM36,11c1.65625,0 3,1.34375 3,3c0,1.65625 -1.34375,3 -3,3c-1.65625,0 -3,-1.34375 -3,-3c0,-1.65625 1.34375,-3 3,-3z"></path></g></g></svg>